<svg width="36" height="36" viewBox="0 0 36 36" fill="none" xmlns="http://www.w3.org/2000/svg">
<path d="M10.41 7.5C10.4096 8.29565 10.0931 9.05856 9.53023 9.62089C8.96734 10.1832 8.20412 10.4989 7.40847 10.4985C6.61282 10.4981 5.84992 10.1817 5.28759 9.61876C4.72526 9.05587 4.40958 8.29265 4.40997 7.497C4.41037 6.70136 4.72682 5.93845 5.28971 5.37612C5.8526 4.8138 6.61582 4.49811 7.41147 4.49851C8.20712 4.4989 8.97003 4.81535 9.53235 5.37825C10.0947 5.94114 10.4104 6.70436 10.41 7.5ZM10.5 12.72H4.49997V31.5H10.5V12.72ZM19.98 12.72H14.01V31.5H19.92V21.645C19.92 16.155 27.075 15.645 27.075 21.645V31.5H33V19.605C33 10.35 22.41 10.695 19.92 15.24L19.98 12.72Z" fill="black"/>
</svg>
